<svg xmlns="http://www.w3.org/2000/svg" xmlns:xlink="http://www.w3.org/1999/xlink" version="1.1" x="0px" y="0px" viewBox="0 0 100 125" enable-background="new 0 0 100 100" xml:space="preserve"><g display="none"><rect x="15" y="20" display="inline" width="10" height="10"/><rect x="25" y="30" display="inline" width="10" height="10"/><rect x="25" y="20" display="inline" width="10" height="10"/><rect x="65" y="20" display="inline" width="10" height="10"/><rect x="65" y="30" display="inline" width="10" height="10"/><rect x="75" y="20" display="inline" width="10" height="10"/><rect x="75" y="70" display="inline" width="10" height="10"/><rect x="65" y="70" display="inline" width="10" height="10"/><rect x="55" y="70" display="inline" width="10" height="10"/><rect x="45" y="70" display="inline" width="10" height="10"/><rect x="35" y="70" display="inline" width="10" height="10"/><rect x="25" y="70" display="inline" width="10" height="10"/><rect x="15" y="60" display="inline" width="10" height="10"/></g><g><path d="M44.181,15.243c19.622,0,35.862,14.71,38.3,33.681l8.015-9.159c0.728-0.831,1.989-0.915,2.822-0.188   c0.831,0.728,0.915,1.991,0.188,2.822l-11.191,12.79c-0.013,0.015-0.029,0.024-0.043,0.04c-0.032,0.034-0.064,0.066-0.099,0.1   c-0.017,0.016-0.028,0.033-0.046,0.049c-0.026,0.023-0.056,0.039-0.083,0.061c-0.028,0.021-0.056,0.047-0.085,0.066   c-0.026,0.02-0.054,0.035-0.081,0.053c-0.058,0.037-0.117,0.067-0.177,0.098c-0.032,0.016-0.063,0.036-0.096,0.051   c-0.02,0.008-0.04,0.015-0.06,0.022c-0.074,0.029-0.15,0.05-0.227,0.07c-0.013,0.003-0.024,0.009-0.038,0.012   c-0.021,0.005-0.041,0.015-0.062,0.019c-0.011,0.003-0.021,0.004-0.032,0.006c-0.125,0.023-0.251,0.037-0.377,0.037h-0.001l0,0l0,0   c-0.001,0-0.001,0-0.001,0c-0.126,0-0.252-0.014-0.377-0.037c-0.011-0.002-0.021-0.003-0.032-0.006   c-0.021-0.004-0.041-0.014-0.062-0.019c-0.014-0.003-0.025-0.009-0.038-0.012c-0.076-0.021-0.152-0.041-0.227-0.07   c-0.02-0.008-0.04-0.015-0.06-0.022c-0.033-0.015-0.063-0.035-0.096-0.051c-0.06-0.03-0.119-0.061-0.177-0.098   c-0.027-0.018-0.055-0.033-0.081-0.053c-0.029-0.02-0.057-0.045-0.085-0.066c-0.027-0.021-0.057-0.037-0.083-0.061   c-0.018-0.016-0.029-0.033-0.046-0.049c-0.034-0.033-0.066-0.065-0.099-0.1c-0.014-0.016-0.03-0.025-0.043-0.04l-11.191-12.79   c-0.728-0.831-0.644-2.095,0.188-2.822c0.832-0.727,2.095-0.643,2.822,0.188l7.171,8.196   c-2.813-16.287-17.034-28.718-34.112-28.718c-19.094,0-34.628,15.534-34.628,34.628S25.087,88.5,44.181,88.5c1.104,0,2,0.895,2,2   c0,1.104-0.896,2-2,2c-21.3,0-38.628-17.329-38.628-38.629C5.553,32.572,22.881,15.243,44.181,15.243z"/></g><text x="0" y="115" fill="#000000" font-size="5px" font-weight="bold" font-family="'Helvetica Neue', Helvetica, Arial-Unicode, Arial, Sans-serif">Created by Universal Icons</text><text x="0" y="120" fill="#000000" font-size="5px" font-weight="bold" font-family="'Helvetica Neue', Helvetica, Arial-Unicode, Arial, Sans-serif">from the Noun Project</text></svg>